# xmcd
#
# Track frame offsets:
#	183
#	12273
#	30605
#	46253
#	65960
#	81688
#	97685
#	109215
#	126868
#	141070
#	153665
#	166328
#	177495
#	188953
#
# Disc length: 2683 seconds
#
# Revision: 2
# Processed by: cddbd v1.5.2PL0 Copyright (c) Steve Scherf et al.
# Submitted via: audiograbber 1.83.01
#
DISCID=c30a790e
DTITLE=SKEETER DAVIS - The End Of The World
DYEAR=1992
DGENRE=Country
TTITLE0=Ther End Of The World
TTITLE1=Just When I Needed You Most
TTITLE2=Blue Kentucty Girl
TTITLE3=I Can't Strop Loving You
TTITLE4=Desperado
TTITLE5=I Honestly Love You
TTITLE6=Crying Time
TTITLE7=Take It Easy
TTITLE8=Hopelessly Devoted To You
TTITLE9=Sweet Dreams
TTITLE10=My Gun
TTITLE11=Rocky Top
TTITLE12=Bye Bye Bye
TTITLE13=Me And Bobby McGee
EXTD=YEAR: 1992 ID3G: 2
EXTT0=
EXTT1=
EXTT2=
EXTT3=
EXTT4=
EXTT5=
EXTT6=
EXTT7=
EXTT8=
EXTT9=
EXTT10=
EXTT11=
EXTT12=
EXTT13=
PLAYORDER=
